<svg xmlns="http://www.w3.org/2000/svg" width="112" height="148" viewBox="0 0 112 148">
    <path fill="none" fill-rule="evenodd" stroke="#D9D9D9" d="M11.996-51.5C-42.95-51.5-87.5-6.95-87.5 47.996S-42.948 147.5 11.996 147.5c54.945 0 99.504-44.56 99.504-99.504S66.942-51.5 11.996-51.5zm21 154.945c-5.102 2.014-9.225 3.566-12.336 4.646-3.12 1.086-6.74 1.628-10.848 1.628-6.343 0-11.312-1.56-14.866-4.688-3.56-3.132-5.342-7.12-5.342-11.947 0-1.844.128-3.729.385-5.648.264-1.902.68-4.047 1.259-6.493l6.44-22.745a115.918 115.918 0 0 0 1.44-6.16c.38-1.894.567-3.65.567-5.261 0-2.772-.564-4.678-1.638-5.707-1.093-1.031-3.254-1.565-6.54-1.565-1.633 0-3.296.245-4.974.74-2.042.628-3.354 1.06-4.446 1.479l-.89.341 1.986-8.184.237-.096c4.244-1.73 8.293-3.206 12.142-4.424 3.886-1.247 7.578-1.87 11.074-1.87 6.288 0 11.186 1.538 14.656 4.614 3.457 3.09 5.196 7.114 5.196 12.022 0 .996-.116 2.726-.35 5.269-.23 2.51-.664 4.823-1.303 6.956l-6.409 22.69c-.508 1.761-.971 3.81-1.402 6.18-.406 2.277-.61 4.04-.61 5.212 0 2.885.626 4.797 1.84 5.776 1.229 1.003 3.47 1.53 6.684 1.53 1.499 0 3.202-.267 5.167-.804 1.91-.527 3.325-1.003 4.206-1.411l.943-.436-2.027 8.261-.24.095zm-.977-92.188c-3.082 2.864-6.802 4.3-11.134 4.3-4.328 0-8.071-1.439-11.176-4.3C6.607 8.385 5.037 4.873 5.037.793c0-4.065 1.572-7.586 4.67-10.491 3.1-2.891 6.843-4.342 11.178-4.342 4.342 0 8.069 1.45 11.135 4.343 3.087 2.894 4.645 6.411 4.645 10.49 0 4.092-1.556 7.594-4.646 10.465z"/>
</svg>
