<svg xmlns="http://www.w3.org/2000/svg" xmlns:xlink="http://www.w3.org/1999/xlink" width="210" height="260" viewBox="0 0 210 260">
    <defs>
        <path id="a" d="M0 0h210v290H0z"/>
    </defs>
    <g fill="none" fill-rule="evenodd" transform="translate(0 -30)">
        <mask id="b" fill="#fff">
            <use xlink:href="#a"/>
        </mask>
        <path stroke="#D9D9D9" stroke-width="3" d="M187.5 31.5c-102.724 0-186 83.275-186 186s83.276 186 186 186 186-83.275 186-186-83.276-186-186-186zm64.009 194.667zm1.592 2.543l-.001.001-93.75 58.594a13.224 13.224 0 0 1-13.416.349 13.214 13.214 0 0 1-6.809-11.56V158.906c0-4.806 2.606-9.23 6.806-11.558a13.187 13.187 0 0 1 13.419.347L253.1 206.29a13.232 13.232 0 0 1 6.212 11.21c0 4.555-2.348 8.79-6.212 11.21z" mask="url(#b)"/>
    </g>
</svg>
