<svg xmlns="http://www.w3.org/2000/svg" xmlns:xlink="http://www.w3.org/1999/xlink" width="209" height="284" viewBox="0 0 209 284">
    <defs>
        <path id="a" d="M0 0h210v290H0z"/>
    </defs>
    <g fill="none" fill-rule="evenodd">
        <mask id="b" fill="#fff">
            <use xlink:href="#a"/>
        </mask>
        <path stroke="#D9D9D9" stroke-width="3" d="M21.492-89.5C-81.219-89.5-164.5-6.22-164.5 96.492c0 102.714 83.284 186.008 185.992 186.008 102.711 0 186.008-83.297 186.008-186.008C207.5-6.216 124.206-89.5 21.492-89.5zm39.583 290.483c-9.574 3.779-17.311 6.692-23.153 8.72-5.913 2.057-12.76 3.083-20.525 3.083-12.02 0-21.468-2.967-28.245-8.93-6.798-5.981-10.208-13.613-10.208-22.824 0-3.482.243-7.041.729-10.666.496-3.586 1.28-7.625 2.376-12.25l12.07-42.636c1.1-4.233 1.997-8.057 2.696-11.52.703-3.515 1.05-6.772 1.05-9.754 0-5.058-1.015-8.49-2.895-10.29-1.92-1.812-5.845-2.781-11.875-2.781-3.008 0-6.072.452-9.162 1.362-3.817 1.173-6.268 1.98-8.3 2.76l-2.67 1.024 4.046-16.666.71-.29c7.97-3.249 15.577-6.02 22.807-8.309 7.339-2.355 14.32-3.532 20.934-3.532 11.92 0 21.236 2.924 27.857 8.794 6.602 5.9 9.929 13.6 9.929 22.96 0 1.89-.218 5.146-.657 9.93-.434 4.744-1.256 9.117-2.463 13.145L34.108 154.86c-.946 3.282-1.811 7.107-2.615 11.53-.756 4.24-1.136 7.516-1.136 9.673 0 5.257 1.123 8.685 3.242 10.394 2.184 1.783 6.27 2.741 12.179 2.741 2.755 0 5.9-.49 9.537-1.485 3.556-.981 6.182-1.865 7.802-2.614l2.829-1.308-4.15 16.907-.721.285zM59.418 28.019c-5.883 5.467-12.995 8.211-21.26 8.211-8.254 0-15.409-2.748-21.336-8.21-5.93-5.493-8.941-12.226-8.941-20.036 0-7.779 3.015-14.528 8.937-20.081 5.918-5.519 13.073-8.292 21.34-8.292 8.285 0 15.411 2.774 21.265 8.295C65.323-6.562 68.31.18 68.31 7.984c0 7.831-2.984 14.546-8.892 20.035z" mask="url(#b)"/>
    </g>
</svg>
