<svg xmlns="http://www.w3.org/2000/svg" width="375" height="360" viewBox="0 0 375 360">
    <path fill="none" fill-rule="evenodd" stroke="#D9D9D9" stroke-width="3" d="M341.525 120.285c-21.332-36.546-50.258-65.472-86.804-86.802C218.174 12.157 178.29 1.5 135.008 1.5 91.726 1.5 51.83 12.16 15.293 33.483c-36.547 21.327-65.474 50.252-86.806 86.802C-92.84 156.825-103.5 196.72-103.5 240c0 43.273 10.66 83.164 31.983 119.713 21.331 36.545 50.258 65.471 86.806 86.804C51.832 467.84 91.726 478.5 135.003 478.5c43.279 0 83.177-10.66 119.717-31.983 36.54-21.321 65.467-50.252 86.801-86.804C362.842 323.173 373.5 283.277 373.5 240c.001-43.278-10.656-83.177-31.975-119.715zm0 0zM177.5 389.005c0 3.3-1.092 6.083-3.253 8.243-2.154 2.163-4.936 3.252-8.24 3.252H106c-3.304 0-6.084-1.087-8.248-3.249-2.165-2.161-3.253-4.942-3.253-8.246V328.99c0-3.305 1.088-6.087 3.254-8.246 2.164-2.159 4.944-3.244 8.247-3.244h60.006c3.303 0 6.085 1.087 8.237 3.245 2.164 2.164 3.256 4.947 3.256 8.245v60.015zm72.153-184.173v.001zm2.842.96v.002c-2.656 7.836-5.63 14.25-8.937 19.254-3.32 5.025-8.063 10.13-14.221 15.318-6.087 5.14-10.949 8.833-14.586 11.074-3.587 2.21-8.742 5.205-15.375 8.928-6.697 3.843-12.218 8.852-16.581 15.035-4.326 6.122-6.458 11.019-6.458 14.596 0 3.307-1.093 6.088-3.262 8.253-2.16 2.161-4.945 3.248-8.255 3.248h-60.122c-3.309 0-6.093-1.086-8.26-3.246-2.17-2.162-3.258-4.942-3.258-8.255v-11.25c0-14.351 5.627-27.78 16.821-40.224 11.097-12.34 23.323-21.478 36.66-27.394 9.838-4.502 16.77-9.08 20.78-13.684 3.924-4.496 5.898-10.503 5.898-18.077 0-6.329-3.642-12.046-11.1-17.209-7.577-5.24-16.197-7.856-25.916-7.856-10.563 0-19.235 2.417-26.049 7.218-6.744 4.89-15.631 14.378-26.61 28.432-2.168 2.888-5.226 4.355-9.029 4.355-2.84 0-5.169-.733-6.853-2.174l-41.347-31.267c-5.398-4.217-6.395-9.441-2.868-15.08C50.559 100.966 89.765 78.5 141.017 78.5c18.398 0 36.37 4.326 53.898 12.97 17.538 8.643 32.181 20.883 43.913 36.702 11.77 15.885 17.672 33.18 17.672 51.833-.016 9.32-1.35 17.915-4.005 25.787z"/>
</svg>
