<?xml version="1.0" encoding="UTF-8"?>
<svg width="112px" height="137px" viewBox="0 0 112 137" version="1.1" xmlns="http://www.w3.org/2000/svg" xmlns:xlink="http://www.w3.org/1999/xlink">
    <!-- Generator: Sketch 53.2 (72643) - https://sketchapp.com -->
    <title>Combined Shape Copy</title>
    <desc>Created with Sketch.</desc>
    <defs>
        <filter x="-18.0%" y="-12.6%" width="135.9%" height="125.2%" filterUnits="objectBoundingBox" id="filter-1">
            <feOffset dx="0" dy="0" in="SourceAlpha" result="shadowOffsetOuter1"></feOffset>
            <feGaussianBlur stdDeviation="17.5" in="shadowOffsetOuter1" result="shadowBlurOuter1"></feGaussianBlur>
            <feColorMatrix values="0 0 0 0 0   0 0 0 0 0   0 0 0 0 0  0 0 0 0.1 0" type="matrix" in="shadowBlurOuter1" result="shadowMatrixOuter1"></feColorMatrix>
            <feMerge>
                <feMergeNode in="shadowMatrixOuter1"></feMergeNode>
                <feMergeNode in="SourceGraphic"></feMergeNode>
            </feMerge>
        </filter>
    </defs>
    <g id="Landing-Page-1" stroke="none" stroke-width="1" fill="none" fill-rule="evenodd">
        <g id="[Mobile]-Landing-page-1" transform="translate(0.000000, -2022.000000)" stroke="#F2F2F2" stroke-width="3">
            <g id="Group-31" transform="translate(0.000000, 2040.000000)">
                <g id="Group-37">
                    <g id="Combined-Shape-Copy-2" filter="url(#filter-1)">
                        <g id="Group-33" transform="translate(0.000000, 10.000000)">
                            <path d="M65.9300444,12.6099272 L25.9955814,12.6099272 C20.2176413,12.6099272 15.4628129,17.9205352 15.4628129,24.5489778 L15.4628129,53.8021566 C15.4628129,60.4305877 20.2177562,65.7412072 25.9955814,65.7412072 L31.7267113,65.7412072 C32.8670375,65.7412072 33.7203692,66.6942686 33.7203692,67.7925594 L33.7203692,82.2225327 C33.7203692,82.5924949 33.8872132,82.6663539 33.9879594,82.5466816 L47.5433684,66.4492265 C47.91689,66.0052285 48.4641029,65.7412072 49.0509516,65.7412072 L65.9300444,65.7412072 C71.7079037,65.7412072 76.4628129,60.4305479 76.4628129,53.8021566 L76.4628129,24.5489778 C76.4628129,17.9206379 71.7078228,12.6099272 65.9300444,12.6099272 Z M46.4129711,28.9227687 L47.8109969,27.4081973 C51.4964919,23.4156302 57.525224,23.4156302 61.2105862,27.4082203 L61.2106074,27.4082432 C64.8323986,31.3321267 64.8323521,37.6476465 61.210543,41.5713854 L48.2701863,55.5928861 C47.2598908,56.6874044 45.5681184,56.6874044 44.5578228,55.5928861 L31.6432378,41.6016848 C28.0214699,37.6778265 28.0214699,31.3621667 31.6432802,27.4384264 C35.3287752,23.4458593 41.3575073,23.4458593 45.0428695,27.4384494 L46.4129711,28.9227687 Z" id="Combined-Shape-Copy" transform="translate(45.962813, 47.609927) scale(-1, 1) rotate(30.000000) translate(-45.962813, -47.609927) "></path>
                        </g>
                    </g>
                </g>
            </g>
        </g>
    </g>
</svg>