<svg xmlns="http://www.w3.org/2000/svg" width="24" height="24" viewBox="0 0 24 24">
    <g fill="none" fill-rule="evenodd">
        <path fill="#DF360A" d="M19.478 0H4.522C2.033 0 .016 1.978.016 4.418v9.618c0 2.44 2.017 4.418 4.506 4.418H6.67c.102 0 .184.081.184.181v4.744c0 .561.7.833 1.092.425l5.077-5.293a.187.187 0 0 1 .134-.057h6.322c2.489 0 4.506-1.978 4.506-4.418V4.418c0-2.44-2.017-4.418-4.506-4.418z"/>
        <path fill="#EC5569" d="M17.063 5.734a2.971 2.971 0 0 0-4.143 0l-.646.634a.4.4 0 0 1-.558 0l-.636-.624a2.971 2.971 0 0 0-4.143 0 2.833 2.833 0 0 0 0 4.062l4.78 4.687a.4.4 0 0 0 .557 0l4.79-4.697a2.833 2.833 0 0 0 0-4.062z"/>
        <path fill="#FFF" d="M17.063 5.734a2.971 2.971 0 0 0-4.143 0l-.646.634a.4.4 0 0 1-.558 0l-.636-.624a2.971 2.971 0 0 0-4.143 0 2.833 2.833 0 0 0 0 4.062l4.78 4.687a.4.4 0 0 0 .557 0l4.79-4.697a2.833 2.833 0 0 0 0-4.062z"/>
    </g>
</svg>
